<svg width="1200" height="900" viewBox="0 0 1200 900" fill="none" xmlns="http://www.w3.org/2000/svg">
  <defs>
    <linearGradient id="bg1" x1="0" y1="0" x2="1200" y2="900" gradientUnits="userSpaceOnUse">
      <stop stop-color="#0A0A0D"/>
      <stop offset="0.45" stop-color="#2A1410"/>
      <stop offset="1" stop-color="#120D18"/>
    </linearGradient>
    <radialGradient id="glow1" cx="0" cy="0" r="1" gradientUnits="userSpaceOnUse" gradientTransform="translate(830 280) rotate(120) scale(360 280)">
      <stop stop-color="#F43F5E" stop-opacity="0.9"/>
      <stop offset="1" stop-color="#F43F5E" stop-opacity="0"/>
    </radialGradient>
  </defs>
  <rect width="1200" height="900" fill="url(#bg1)"/>
  <rect x="80" y="90" width="520" height="730" rx="36" fill="#16161D" stroke="#353547" stroke-width="2"/>
  <rect x="112" y="140" width="456" height="590" rx="24" fill="#0E0E14"/>
  <circle cx="340" cy="430" r="150" fill="url(#glow1)"/>
  <rect x="112" y="140" width="456" height="590" rx="24" fill="url(#glow1)" opacity="0.35"/>
  <rect x="150" y="180" width="310" height="26" rx="13" fill="#F43F5E" fill-opacity="0.25"/>
  <rect x="150" y="222" width="210" height="20" rx="10" fill="#FFFFFF" fill-opacity="0.18"/>
  <rect x="150" y="620" width="240" height="22" rx="11" fill="#FFFFFF" fill-opacity="0.16"/>
  <rect x="150" y="654" width="340" height="16" rx="8" fill="#FFFFFF" fill-opacity="0.1"/>
  <rect x="705" y="145" width="410" height="610" rx="28" fill="#12121A" stroke="#2E2E3D" stroke-width="2"/>
  <rect x="738" y="190" width="220" height="22" rx="11" fill="#FFFFFF" fill-opacity="0.16"/>
  <rect x="738" y="228" width="312" height="16" rx="8" fill="#FFFFFF" fill-opacity="0.1"/>
  <rect x="738" y="290" width="344" height="140" rx="18" fill="#FFFFFF" fill-opacity="0.05"/>
  <rect x="738" y="452" width="344" height="140" rx="18" fill="#FFFFFF" fill-opacity="0.05"/>
  <rect x="738" y="616" width="190" height="44" rx="22" fill="#F43F5E"/>
  <text x="96" y="850" fill="#F4F4F5" fill-opacity="0.74" font-family="Inter, Arial, sans-serif" font-size="34" font-weight="700">PLACEHOLDER IMAGE: LIVE VENUE STREAM</text>
</svg>
