<svg width="1200" height="900" viewBox="0 0 1200 900" fill="none" xmlns="http://www.w3.org/2000/svg">
  <defs>
    <linearGradient id="bg3" x1="0" y1="0" x2="1200" y2="900" gradientUnits="userSpaceOnUse">
      <stop stop-color="#090A0E"/>
      <stop offset="0.5" stop-color="#131828"/>
      <stop offset="1" stop-color="#1F1216"/>
    </linearGradient>
    <radialGradient id="moonGlow" cx="0" cy="0" r="1" gradientUnits="userSpaceOnUse" gradientTransform="translate(970 170) rotate(90) scale(160 160)">
      <stop stop-color="#E4E4E7" stop-opacity="0.45"/>
      <stop offset="1" stop-color="#E4E4E7" stop-opacity="0"/>
    </radialGradient>
  </defs>
  <rect width="1200" height="900" fill="url(#bg3)"/>
  <circle cx="970" cy="170" r="90" fill="url(#moonGlow)"/>
  <rect x="120" y="210" width="960" height="480" rx="22" fill="#0F1119" stroke="#32384A" stroke-width="2"/>
  <rect x="180" y="290" width="840" height="320" rx="16" fill="#131726"/>
  <rect x="240" y="340" width="140" height="180" rx="10" fill="#1E2638"/>
  <rect x="420" y="340" width="140" height="180" rx="10" fill="#1E2638"/>
  <rect x="600" y="340" width="140" height="180" rx="10" fill="#1E2638"/>
  <rect x="780" y="340" width="140" height="180" rx="10" fill="#1E2638"/>
  <rect x="520" y="250" width="180" height="40" rx="20" fill="#F43F5E" fill-opacity="0.88"/>
  <rect x="494" y="732" width="232" height="20" rx="10" fill="#FFFFFF" fill-opacity="0.12"/>
  <rect x="444" y="764" width="332" height="14" rx="7" fill="#FFFFFF" fill-opacity="0.08"/>
  <text x="96" y="850" fill="#F4F4F5" fill-opacity="0.74" font-family="Inter, Arial, sans-serif" font-size="34" font-weight="700">PLACEHOLDER IMAGE: VENUE EXTERIOR</text>
</svg>
